<?xml version="1.0" standalone="no"?>
<!DOCTYPE svg PUBLIC "-//W3C//DTD SVG 20010904//EN"
 "http://www.w3.org/TR/2001/REC-SVG-20010904/DTD/svg10.dtd">
<svg version="1.0" xmlns="http://www.w3.org/2000/svg"
 width="710.000000pt" height="793.000000pt" viewBox="0 0 710.000000 793.000000"
 preserveAspectRatio="xMidYMid meet">

<g transform="translate(0.000000,793.000000) scale(0.100000,-0.100000)"
fill="#000000" stroke="none">
<path d="M3480 7365 c0 -52 5 -106 12 -120 23 -51 108 -71 168 -40 36 18 48
59 52 168 3 65 1 77 -12 75 -12 -3 -16 -20 -18 -78 -4 -129 -16 -150 -87 -150
-35 0 -48 5 -64 26 -18 23 -21 41 -21 120 0 77 -3 94 -15 94 -12 0 -15 -17
-15 -95z"/>
<path d="M3199 7427 c-49 -32 -67 -88 -48 -147 20 -62 55 -85 135 -87 39 -1
73 -8 86 -17 12 -9 34 -16 48 -16 24 1 25 1 5 16 -11 8 -26 19 -33 23 -11 6
-8 16 12 46 45 66 29 158 -34 190 -45 23 -130 20 -171 -8z m160 -23 c71 -59
39 -178 -49 -184 -54 -4 -73 1 -101 29 -23 23 -29 38 -29 71 0 51 12 75 48 94
43 24 96 20 131 -10z"/>
<path d="M3786 7373 c-18 -199 -18 -193 -3 -193 11 0 16 17 21 63 3 34 8 92
12 130 5 56 4 67 -9 67 -12 0 -17 -16 -21 -67z"/>
<path d="M2884 7411 c-45 -28 -64 -59 -64 -109 0 -86 48 -132 138 -132 55 0
108 29 129 70 29 57 5 148 -46 174 -42 22 -119 20 -157 -3z m159 -41 c73 -81
-9 -203 -119 -176 -43 11 -74 53 -74 100 0 49 21 83 64 102 45 21 96 10 129
-26z"/>
<path d="M3936 7322 c-91 -152 -90 -152 -69 -152 11 0 27 15 38 35 15 30 23
35 44 31 14 -3 47 -8 73 -11 44 -6 48 -8 54 -40 3 -18 13 -36 21 -40 23 -8 26
0 15 37 -6 18 -25 79 -41 134 -44 143 -52 143 -135 6z m102 -6 l21 -69 -57 7
c-31 4 -58 8 -59 10 -2 2 13 31 33 66 19 34 37 60 39 58 1 -2 12 -34 23 -72z"/>
<path d="M4174 7270 l-20 -131 20 -4 c120 -25 136 -25 136 -6 0 5 -25 12 -56
16 -30 3 -57 12 -60 19 -3 8 2 53 10 102 19 109 20 134 3 134 -9 0 -19 -39
-33 -130z"/>
<path d="M2592 7380 c-18 -4 -35 -10 -38 -13 -11 -11 41 -250 55 -255 11 -4
12 7 6 57 l-7 61 40 0 c34 0 46 -7 85 -46 34 -35 50 -45 63 -40 17 7 14 12
-21 45 -22 21 -49 42 -60 48 -19 11 -19 12 8 33 35 28 38 81 5 104 -24 17 -81
19 -136 6z m116 -33 c20 -15 14 -55 -10 -71 -13 -7 -39 -17 -60 -20 l-36 -7
-10 48 c-6 26 -9 50 -6 52 7 8 79 17 94 13 8 -3 21 -9 28 -15z"/>
<path d="M2338 7328 c-34 -7 -48 -15 -48 -27 0 -9 13 -65 28 -126 20 -77 33
-111 44 -113 14 -3 14 3 3 53 -13 55 -13 55 11 61 36 9 65 -1 111 -41 63 -54
90 -45 30 10 -27 25 -55 45 -63 45 -21 0 -17 10 11 32 33 26 35 80 3 102 -25
18 -59 19 -130 4z m110 -30 c35 -35 -2 -83 -71 -95 -33 -5 -35 -4 -41 32 -4
20 -10 42 -12 50 -9 23 103 34 124 13z"/>
<path d="M4492 7208 c-16 -68 -26 -126 -23 -130 4 -4 38 -13 77 -19 60 -11 78
-10 110 2 52 20 84 69 84 127 0 38 -5 49 -34 77 -31 29 -124 65 -168 65 -13 0
-23 -29 -46 -122z m114 81 c61 -16 104 -57 104 -101 0 -44 -33 -96 -66 -104
-26 -7 -132 1 -141 10 -7 7 41 206 50 206 5 0 28 -5 53 -11z"/>
<path d="M2104 7262 c-11 -7 -44 -208 -44 -264 0 -42 28 -24 32 20 3 36 4 37
73 60 l69 22 24 -30 c24 -31 56 -41 50 -15 -4 19 -170 214 -183 214 -5 1 -15
-3 -21 -7z m106 -135 c0 -9 -31 -21 -78 -32 l-32 -7 6 59 c9 93 10 93 59 38
24 -28 44 -53 45 -58z"/>
<path d="M4792 7141 c-18 -60 -34 -116 -38 -124 -4 -11 13 -21 70 -40 59 -20
76 -23 76 -12 0 8 -23 21 -55 31 -58 19 -61 23 -44 73 12 35 20 37 79 16 51
-18 50 -18 50 -2 0 7 -24 21 -54 30 l-54 17 12 39 c6 22 14 42 17 45 3 4 25
-1 49 -9 49 -17 70 -19 70 -6 0 9 -112 51 -135 51 -6 0 -25 -49 -43 -109z"/>
<path d="M1823 7172 c-23 -9 -44 -20 -48 -23 -3 -4 11 -51 31 -105 20 -55 41
-109 45 -121 5 -15 14 -21 23 -17 14 5 14 10 1 41 -22 51 -19 58 26 78 49 23
69 49 69 91 0 23 -8 39 -26 53 -32 25 -65 26 -121 3z m105 -24 c18 -18 15 -63
-5 -80 -16 -12 -67 -38 -78 -38 -4 0 -35 90 -35 102 0 24 97 37 118 16z"/>
<path d="M5160 7113 c-21 -8 -40 -34 -40 -55 0 -10 23 -43 50 -73 52 -57 58
-73 38 -93 -18 -18 -49 -14 -93 13 -47 29 -55 30 -55 10 0 -21 75 -55 122 -55
38 0 68 20 68 46 0 23 -25 66 -55 94 -78 73 -34 120 65 70 26 -13 41 -16 45
-9 8 12 8 12 -30 32 -36 18 -94 28 -115 20z"/>
<path d="M1483 7033 c-10 -3 -13 -44 -13 -154 0 -128 2 -148 15 -143 10 4 15
20 15 49 l0 42 65 27 64 28 27 -21 c27 -22 70 -29 59 -11 -10 16 -208 190
-214 189 -3 0 -12 -3 -18 -6z m76 -81 l53 -48 -51 -24 c-28 -13 -53 -22 -55
-19 -6 8 -14 139 -7 139 3 0 30 -22 60 -48z"/>
<path d="M5360 6920 c-58 -50 -106 -94 -108 -99 -7 -21 28 -17 49 5 29 31 37
30 109 -6 56 -28 59 -31 62 -72 2 -23 9 -43 16 -46 9 -3 12 31 12 146 0 127
-2 151 -16 156 -9 3 -16 6 -17 6 -1 0 -49 -41 -107 -90z m108 -58 l-3 -38 -55
24 -54 25 54 48 55 49 3 -35 c2 -19 2 -52 0 -73z"/>
<path d="M5587 6804 c-52 -104 -63 -145 -36 -128 5 3 32 49 58 102 56 112 52
116 76 -73 14 -104 23 -134 45 -135 3 0 35 51 71 113 43 71 63 114 56 119 -17
10 -22 4 -79 -95 l-53 -92 -18 140 c-17 131 -29 165 -57 165 -3 0 -31 -52 -63
-116z"/>
<path d="M1197 6894 c-6 -6 94 -206 115 -229 12 -13 138 51 138 70 0 12 -13 9
-59 -15 l-59 -30 -55 102 c-53 99 -66 116 -80 102z"/>
<path d="M1060 6815 c-30 -19 -59 -36 -64 -38 -9 -3 121 -227 132 -227 14 0
132 72 132 80 0 16 -23 11 -65 -15 -51 -31 -57 -31 -78 4 -24 41 -22 46 28 75
25 15 45 31 45 36 0 16 -15 12 -61 -15 -24 -14 -47 -25 -50 -25 -3 0 -15 18
-27 39 l-22 40 50 27 c27 15 50 33 50 41 0 18 -8 16 -70 -22z"/>
<path d="M3520 6735 c-14 -8 -20 -14 -15 -14 6 -1 17 4 25 9 11 7 17 5 21 -7
5 -14 7 -13 11 5 7 26 -6 28 -42 7z"/>
<path d="M906 6721 c-4 -5 16 -46 44 -92 27 -45 50 -90 50 -98 0 -42 -63 -86
-111 -79 -21 3 -95 87 -127 144 -6 11 -16 15 -27 11 -14 -6 -10 -17 30 -75 62
-88 89 -112 127 -112 70 0 146 73 135 130 -7 31 -95 180 -108 180 -4 0 -10 -4
-13 -9z"/>
<path d="M3442 6690 c-37 -26 -73 -75 -72 -97 1 -4 10 9 21 30 11 20 37 49 59
63 36 24 47 34 37 34 -2 0 -23 -13 -45 -30z"/>
<path d="M3542 6657 c-2 -41 2 -53 27 -78 16 -16 35 -29 43 -29 7 0 -2 9 -19
20 -33 19 -39 35 -46 100 -3 28 -4 25 -5 -13z"/>
<path d="M6038 6571 c-60 -91 -81 -105 -120 -85 -34 18 -46 1 -16 -20 26 -18
61 -21 88 -6 24 13 132 169 124 181 -11 18 -23 7 -76 -70z"/>
<path d="M3780 6601 c19 -4 46 -11 60 -14 20 -6 19 -4 -5 8 -16 8 -43 14 -60
13 -29 0 -29 0 5 -7z"/>
<path d="M3678 6574 c-27 -13 -48 -27 -48 -29 0 -5 99 42 109 51 13 11 -20 0
-61 -22z"/>
<path d="M3361 6559 c-1 -22 -8 -28 -43 -37 l-43 -11 45 6 c25 3 46 7 48 8 2
2 2 16 -1 32 -4 27 -4 28 -6 2z"/>
<path d="M3933 6540 c15 -12 24 -26 21 -32 -4 -5 -34 -28 -68 -50 -33 -23 -53
-38 -42 -34 10 3 45 25 78 48 55 39 58 43 41 56 -31 23 -60 34 -30 12z"/>
<path d="M645 6538 c-11 -6 -33 -22 -48 -37 -67 -61 -77 -140 -24 -197 42 -46
96 -55 154 -26 46 24 96 78 87 94 -4 6 -15 0 -28 -15 -28 -33 -85 -67 -114
-67 -54 0 -101 46 -102 100 0 50 31 94 84 120 25 12 44 26 40 31 -7 12 -24 11
-49 -3z"/>
<path d="M6143 6520 c-121 -73 -50 -260 100 -260 44 0 53 4 88 39 34 33 39 45
39 83 0 58 -31 104 -89 135 -54 28 -96 29 -138 3z m127 -25 c67 -35 90 -109
50 -165 -45 -63 -121 -60 -180 6 -43 49 -41 95 4 140 38 38 77 44 126 19z"/>
<path d="M3205 6491 c-22 -10 -55 -33 -73 -52 l-33 -34 48 -7 c26 -4 49 -5 52
-3 2 2 -15 7 -38 11 l-42 7 27 28 c15 16 51 38 78 48 28 11 44 20 36 20 -8 0
-33 -8 -55 -18z"/>
<path d="M3758 6397 c-27 -11 -48 -24 -48 -27 0 -7 46 -30 58 -30 4 1 -4 7
-17 14 l-25 14 50 25 c59 31 48 33 -18 4z"/>
<path d="M1570 6358 c-32 -41 -59 -122 -60 -178 0 -58 24 -183 50 -257 11 -31
20 -58 20 -59 0 -1 -19 -10 -42 -18 -41 -15 -108 -18 -108 -4 0 3 -13 11 -29
16 -41 14 -91 86 -91 129 0 37 36 79 77 89 32 8 29 17 -14 53 -56 46 -100 64
-142 57 -47 -7 -97 -60 -105 -112 -9 -49 -11 -53 -64 -87 -85 -55 -128 -152
-103 -230 19 -56 31 -60 88 -30 50 27 52 27 124 15 41 -7 93 -22 116 -33 48
-23 119 -84 163 -139 l31 -39 -74 1 c-113 1 -142 -18 -264 -170 -90 -113 -141
-152 -196 -152 -32 0 -46 6 -73 35 -18 19 -43 53 -55 75 -13 22 -26 39 -30 38
-15 -6 -83 -95 -96 -127 -23 -55 1 -137 61 -208 24 -28 25 -36 19 -97 -6 -64
-5 -68 23 -98 16 -17 46 -38 66 -47 l38 -16 -61 -70 c-56 -65 -59 -70 -37 -73
138 -16 218 -80 218 -173 0 -51 -46 -213 -80 -284 -12 -25 -62 -88 -112 -141
-58 -61 -99 -116 -116 -152 -43 -93 -42 -212 3 -319 l14 -33 62 40 c70 45 83
49 74 20 -4 -11 -7 -49 -7 -83 -1 -68 17 -115 70 -177 l29 -34 35 37 c45 47
79 48 144 5 75 -51 115 -124 149 -270 15 -65 14 -72 -6 -150 -30 -118 -24
-206 16 -248 49 -51 147 -65 251 -34 84 24 109 -8 59 -76 -31 -42 -32 -70 -2
-98 43 -41 119 -23 171 38 32 39 34 85 6 140 -32 63 -58 74 -186 80 -102 5
-115 7 -138 29 -21 20 -26 34 -26 73 0 26 5 57 12 67 11 19 13 18 47 -10 51
-42 51 -42 106 -62 56 -19 118 -21 185 -6 78 18 180 51 180 58 0 4 -27 23 -60
42 -63 36 -70 48 -44 70 22 18 54 84 54 110 0 13 -10 43 -21 67 -27 55 -72 77
-176 87 -40 4 -73 5 -73 4 0 -2 14 -31 30 -63 17 -32 30 -69 30 -82 0 -56 -80
-86 -171 -64 -87 21 -140 96 -143 202 -1 78 32 117 150 180 49 26 103 63 121
82 40 43 63 120 63 207 0 136 -33 209 -120 264 -29 18 -40 33 -49 69 -22 89
-79 125 -198 126 l-53 0 0 -54 c0 -59 -7 -89 -20 -81 -4 3 -21 -2 -36 -10 -16
-8 -35 -15 -41 -15 -7 0 -30 -17 -52 -39 -29 -29 -40 -49 -45 -84 -18 -120
110 -232 241 -212 68 10 100 46 127 139 13 43 26 74 29 69 13 -21 37 -139 37
-183 0 -101 -105 -191 -223 -191 -67 0 -203 59 -267 117 -44 40 -100 141 -100
181 0 73 22 124 84 191 76 83 119 145 153 218 37 81 30 177 -20 294 -20 47
-37 89 -37 93 0 4 21 -9 46 -28 25 -19 78 -54 117 -78 70 -41 74 -42 162 -42
82 0 97 3 157 33 107 53 177 156 180 265 2 59 -18 100 -80 169 l-34 37 15 71
c9 44 11 73 5 76 -6 4 -42 3 -81 0 -91 -9 -136 -38 -172 -109 -37 -76 -35 -88
18 -81 81 11 137 -42 137 -130 0 -87 -49 -130 -146 -129 -79 1 -146 31 -180
82 -32 50 -57 169 -51 251 7 116 89 239 187 283 53 24 143 46 187 47 17 0 112
-20 211 -45 l179 -45 264 0 c145 0 336 3 424 7 l159 6 -52 18 c-69 24 -149 70
-202 117 l-43 38 -70 -35 c-66 -34 -75 -36 -166 -36 -223 1 -404 100 -480 263
-45 99 -58 181 -37 236 21 56 89 126 152 157 67 33 208 35 250 3 55 -40 69
-70 72 -152 3 -66 1 -81 -17 -104 -30 -37 -83 -54 -122 -38 -33 14 -53 46 -63
103 -6 33 -9 37 -22 26 -18 -15 -43 -62 -55 -102 -19 -67 46 -173 120 -196 98
-29 193 6 307 114 38 36 71 65 73 65 2 0 28 -21 58 -46 30 -26 57 -44 60 -40
13 12 -26 155 -78 286 l-53 135 -1 130 c0 72 3 150 8 175 l7 45 -17 -25 c-38
-52 -73 -87 -107 -105 l-35 -19 -132 64 c-121 59 -136 64 -197 64 -90 0 -155
-29 -222 -100 l-52 -54 -40 22 c-46 26 -68 62 -68 113 0 43 -8 43 -40 3z"/>
<path d="M4324 6367 c37 -156 25 -292 -39 -449 -44 -107 -85 -246 -85 -288 0
-19 7 -16 59 29 32 28 61 51 65 51 3 0 36 -29 73 -65 111 -107 206 -143 302
-115 81 23 145 133 121 207 -7 21 -24 53 -38 72 l-26 35 -12 -52 c-19 -87 -67
-118 -137 -88 -57 23 -70 54 -65 142 5 80 19 109 72 148 41 31 154 34 228 6
97 -36 188 -144 188 -223 0 -42 -24 -124 -57 -194 -71 -149 -256 -247 -469
-248 -97 0 -105 2 -171 36 l-70 35 -44 -39 c-56 -50 -116 -85 -191 -112 l-60
-22 158 -6 c88 -4 276 -7 419 -7 l260 -1 193 48 c190 47 193 47 265 35 139
-24 229 -88 285 -202 24 -50 27 -65 26 -160 -2 -182 -52 -264 -179 -290 -143
-30 -233 67 -180 194 20 48 64 70 123 62 l45 -6 -6 35 c-7 45 -60 121 -97 140
-16 8 -63 18 -105 22 -86 7 -84 10 -64 -89 l11 -55 -51 -64 c-59 -73 -65 -90
-59 -163 13 -155 147 -274 320 -284 72 -4 83 -2 142 27 36 17 91 51 123 74 32
24 63 46 69 50 7 4 -7 -35 -29 -86 -38 -84 -41 -100 -42 -178 0 -77 3 -91 34
-153 19 -37 64 -101 100 -142 87 -99 116 -140 119 -167 7 -62 0 -96 -33 -164
-40 -82 -73 -109 -199 -169 -118 -56 -209 -46 -296 32 -49 44 -64 89 -56 163
7 61 25 131 37 144 4 5 12 -13 17 -40 15 -66 36 -115 61 -137 12 -11 21 -15
21 -10 0 5 5 2 10 -6 7 -11 27 -15 72 -15 97 1 173 50 207 134 30 71 -17 173
-91 201 -18 6 -41 16 -51 21 -10 5 -22 7 -26 4 -14 -8 -21 21 -21 81 l0 54
-52 0 c-122 -1 -170 -31 -195 -121 -11 -40 -22 -60 -38 -67 -42 -19 -93 -72
-110 -115 -26 -65 -31 -185 -11 -261 24 -86 61 -128 157 -176 145 -74 184
-129 160 -234 -18 -82 -61 -132 -128 -152 -66 -19 -130 -12 -163 18 -29 27
-22 73 20 141 l31 50 -68 -7 c-100 -10 -139 -23 -166 -56 -42 -49 -52 -94 -33
-145 9 -23 26 -51 36 -60 11 -10 20 -23 20 -30 0 -6 -27 -27 -60 -46 -33 -18
-60 -37 -60 -40 0 -6 91 -36 170 -55 115 -28 209 -10 291 57 43 35 46 36 57
18 7 -10 12 -41 12 -68 0 -82 -33 -101 -173 -101 -74 0 -98 -4 -124 -20 -39
-23 -73 -86 -73 -134 0 -89 137 -162 198 -106 29 27 28 58 -3 100 -28 38 -32
62 -11 79 12 10 28 9 76 -5 42 -12 80 -15 126 -11 70 5 101 21 137 69 26 35
25 133 -2 232 l-21 75 24 94 c36 140 80 213 155 255 58 33 93 29 131 -14 30
-35 32 -35 50 -19 37 33 78 110 85 155 3 25 2 66 -3 93 -11 56 -6 57 51 18 88
-59 84 -60 108 19 16 54 20 89 17 148 -6 112 -34 167 -142 282 -99 105 -129
159 -171 304 -29 102 -32 157 -9 194 26 46 88 82 160 96 l67 12 -61 69 -61 70
37 16 c20 9 50 30 66 47 28 30 29 34 23 96 -6 60 -4 68 18 95 35 41 75 130 75
167 0 41 -100 193 -113 173 -2 -2 -19 -30 -40 -61 -47 -74 -75 -92 -128 -85
-55 7 -96 41 -186 155 -117 148 -145 165 -260 164 l-74 -1 43 51 c70 84 146
134 234 154 85 19 131 15 173 -15 39 -28 46 -27 65 13 41 87 -3 197 -105 262
-30 19 -40 34 -53 76 -19 67 -60 108 -113 115 -34 4 -47 -1 -103 -39 -35 -24
-65 -48 -67 -53 -1 -6 15 -17 36 -26 24 -10 46 -29 55 -48 15 -28 15 -34 0
-70 -17 -43 -82 -110 -102 -103 -6 2 -12 0 -12 -5 0 -15 -64 -13 -107 3 -24 8
-43 16 -43 17 0 1 9 25 19 53 25 66 51 203 51 268 -1 28 -7 68 -14 89 -17 46
-66 118 -76 112 -4 -2 -10 -25 -12 -50 -6 -53 -18 -70 -70 -96 l-39 -20 -22
28 c-67 86 -144 127 -242 127 -66 0 -78 -3 -203 -64 l-133 -64 -36 19 c-19 11
-51 40 -71 65 -53 67 -55 68 -48 37z"/>
<path d="M376 6327 c-68 -65 -74 -128 -11 -135 15 -2 56 4 92 14 59 16 65 16
80 1 24 -24 4 -60 -52 -96 -42 -27 -48 -41 -18 -41 21 0 100 78 107 106 8 32
-7 60 -37 68 -13 3 -54 -3 -92 -14 -72 -21 -95 -16 -95 20 0 18 72 90 90 90 5
0 7 7 4 15 -9 23 -20 19 -68 -28z"/>
<path d="M3284 6358 c18 -10 18 -11 -5 -30 l-24 -19 34 17 c33 16 34 17 16 30
-10 8 -24 14 -29 14 -6 0 -2 -6 8 -12z"/>
<path d="M6432 6334 c-29 -20 -28 -53 3 -114 29 -56 32 -95 9 -104 -22 -8 -68
18 -97 55 -14 18 -29 29 -36 25 -31 -19 70 -106 124 -106 61 0 72 47 30 130
-14 27 -25 58 -25 69 0 46 49 39 102 -15 21 -21 42 -33 48 -29 23 14 -87 105
-127 105 -5 0 -19 -7 -31 -16z"/>
<path d="M3794 6328 c56 -38 87 -73 100 -117 8 -25 15 -38 15 -28 2 49 -46
115 -104 143 -16 8 -21 9 -11 2z"/>
<path d="M3205 6284 c-46 -30 -142 -120 -156 -146 -7 -14 -6 -18 6 -18 9 0 13
5 9 11 -8 14 77 101 139 141 41 26 55 38 44 38 -1 0 -20 -12 -42 -26z"/>
<path d="M3496 6182 c-17 -26 -36 -58 -44 -72 -14 -23 -13 -22 9 3 l24 28 57
-58 c76 -77 103 -137 102 -230 0 -94 -14 -110 -43 -50 -27 55 -96 109 -212
166 -72 36 -80 38 -54 15 140 -122 168 -151 192 -191 36 -62 48 -188 22 -248
-17 -42 -150 -243 -203 -307 -29 -35 -35 -38 -85 -38 -62 0 -59 -19 -19 160
28 119 71 219 131 300 l41 55 -55 -46 c-30 -25 -81 -78 -114 -117 l-60 -72
-12 73 c-15 91 -47 174 -81 211 l-27 28 65 -32 c77 -39 120 -53 120 -39 0 22
-40 86 -72 114 l-33 30 31 -35 c18 -19 39 -50 48 -67 15 -31 15 -33 0 -33 -9
0 -63 25 -119 55 l-102 54 -19 -22 c-11 -12 -26 -31 -34 -42 -14 -18 -14 -19
2 -6 43 33 101 -52 123 -178 8 -42 12 -77 11 -78 -1 -2 -34 12 -72 31 -73 35
-194 80 -200 73 -2 -2 17 -15 43 -30 73 -39 160 -118 214 -192 46 -64 49 -71
49 -129 l0 -61 -572 0 -573 0 -3 -500 c-3 -657 8 -938 43 -1104 155 -726 560
-1238 1277 -1615 l124 -66 120 69 c225 128 371 230 549 382 355 303 604 715
690 1144 42 207 46 308 43 1020 l-3 670 -468 3 -469 2 55 58 c31 31 65 69 76
83 14 19 33 28 66 32 62 9 79 20 99 62 15 31 16 44 6 92 -7 30 -18 72 -25 92
l-14 36 0 -46 c-1 -45 -32 -132 -51 -144 -6 -4 -10 21 -10 64 0 38 -3 77 -7
87 -4 11 -2 15 4 11 10 -7 63 80 63 104 0 7 -12 -11 -27 -40 -24 -50 -27 -52
-40 -35 -41 58 -96 123 -102 120 -4 -3 -18 -39 -31 -80 -14 -42 -28 -76 -32
-76 -3 0 -16 20 -28 44 -20 42 -20 47 -5 82 18 44 10 58 -43 75 -20 6 -41 14
-45 16 -13 8 52 71 79 77 14 4 24 14 24 24 -1 16 -1 16 -11 0 -5 -10 -14 -18
-20 -18 -15 0 -68 -41 -84 -67 -15 -22 -14 -23 27 -33 24 -6 51 -17 61 -25 17
-12 17 -15 2 -45 -16 -30 -16 -36 -1 -74 9 -22 23 -50 31 -60 15 -20 15 -20
29 0 14 18 15 18 45 -10 26 -25 31 -37 31 -76 0 -41 -6 -54 -42 -96 -56 -66
-181 -194 -189 -194 -3 0 -12 20 -19 45 -16 59 -7 146 20 191 l20 36 -27 -22
c-48 -37 -102 -110 -109 -145 -7 -40 7 -69 55 -112 l36 -32 -147 -1 c-82 0
-148 2 -148 4 0 5 76 129 133 217 38 59 131 160 182 198 22 16 12 13 -34 -9
-73 -36 -71 -47 -17 105 29 81 36 114 35 175 0 76 -14 132 -43 172 -9 13 -23
33 -32 45 l-16 23 57 -20 c32 -11 63 -20 69 -19 6 0 -23 12 -64 27 -41 15
-100 44 -130 65 -30 20 -57 37 -60 37 -3 0 -18 -21 -34 -48z m342 -969 c-10
-2 -28 -2 -40 0 -13 2 -5 4 17 4 22 1 32 -1 23 -4z m687 -137 c30 -62 55 -119
55 -127 1 -8 16 3 35 24 l34 39 3 -49 c2 -26 0 -70 -5 -98 -4 -27 -5 -70 -2
-93 6 -40 8 -42 20 -25 7 10 15 16 17 13 2 -3 18 -34 37 -68 28 -54 33 -71 28
-110 -3 -29 -12 -52 -25 -62 -23 -19 -20 -82 4 -73 9 3 14 -2 14 -15 0 -11 6
-22 13 -25 9 -3 9 -7 -1 -19 -10 -12 -10 -17 -1 -20 9 -3 9 -9 0 -26 -9 -17
-9 -22 0 -22 8 0 6 -7 -5 -19 -13 -15 -14 -20 -4 -23 10 -4 10 -8 2 -19 -6 -8
-14 -38 -16 -66 l-5 -53 40 0 c22 0 38 -2 35 -5 -3 -3 -179 -5 -392 -5 l-386
0 0 -40 c0 -57 -26 -180 -59 -275 l-27 -81 73 1 73 0 29 47 c56 88 152 135
258 125 149 -14 253 -125 253 -270 0 -84 -17 -132 -67 -187 -60 -66 -119 -93
-211 -94 -73 -1 -73 -2 -90 -35 -63 -131 -237 -185 -375 -117 -64 31 -120 94
-139 158 -6 21 -13 38 -16 38 -2 0 -34 -28 -71 -62 -68 -65 -150 -123 -214
-154 -35 -17 -37 -20 -37 -66 l0 -48 605 0 c333 0 605 -3 605 -7 0 -12 -92
-178 -133 -238 -119 -176 -332 -400 -517 -544 -154 -120 -504 -341 -540 -341
-19 0 -232 111 -339 177 -333 206 -605 474 -784 774 -31 53 -68 121 -81 150
-90 205 -130 317 -170 489 -52 215 -54 252 -61 978 l-6 682 1245 0 1246 0 55
-114z"/>
<path d="M4670 4678 c0 -8 12 -25 27 -39 l27 -24 -24 35 c-13 19 -25 37 -27
39 -2 2 -3 -2 -3 -11z"/>
<path d="M4690 4573 c0 -25 15 -38 25 -22 4 6 0 18 -9 27 -15 15 -16 15 -16
-5z"/>
<path d="M4254 3836 c-47 -22 -86 -60 -112 -112 -10 -18 -4 -28 41 -75 58 -60
87 -127 87 -200 l0 -46 64 -2 c142 -5 246 92 246 229 0 171 -170 279 -326 206z"/>
<path d="M3963 3670 c-52 -12 -75 -33 -125 -112 -60 -95 -64 -145 -18 -225 65
-113 215 -146 323 -71 53 38 106 128 74 128 -8 0 -34 18 -59 40 -53 46 -87
117 -91 187 -3 62 -24 72 -104 53z"/>
<path d="M4125 3598 c10 -49 45 -114 77 -145 l28 -27 0 26 c0 41 -21 90 -57
136 -41 51 -57 54 -48 10z"/>
<path d="M3330 2990 c0 -5 7 -10 15 -10 8 0 15 5 15 10 0 6 -7 10 -15 10 -8 0
-15 -4 -15 -10z"/>
<path d="M3012 2680 c0 -14 2 -19 5 -12 2 6 2 18 0 25 -3 6 -5 1 -5 -13z"/>
<path d="M3082 2680 c-7 -12 -8 -20 -2 -20 5 0 10 5 10 11 0 5 4 7 10 4 6 -3
7 1 4 9 -8 20 -7 20 -22 -4z"/>
<path d="M3068 2578 c-16 -25 -29 -78 -19 -78 5 0 41 100 35 100 -1 0 -8 -10
-16 -22z"/>
<path d="M3388 2573 c6 -2 18 -2 25 0 6 3 1 5 -13 5 -14 0 -19 -2 -12 -5z"/>
<path d="M3001 2560 c0 -8 4 -22 9 -30 12 -18 12 -2 0 25 -6 13 -9 15 -9 5z"/>
<path d="M3308 2295 c3 -16 -1 -25 -15 -28 -10 -3 34 -4 97 -4 111 1 112 1 21
4 -86 4 -93 5 -88 23 3 10 -1 21 -8 23 -8 4 -10 -2 -7 -18z"/>
<path d="M172 6147 l-52 -53 95 -94 95 -95 56 57 c35 35 54 60 49 68 -5 8 -23
-3 -56 -36 l-49 -48 -29 34 -29 35 40 42 c57 58 40 79 -18 22 l-44 -43 -32 32
-32 32 42 43 c23 23 42 46 42 50 0 20 -31 2 -78 -46z"/>
<path d="M6572 6111 c-45 -49 -82 -93 -82 -98 0 -18 108 -115 120 -108 8 5 -4
23 -36 56 l-48 49 32 32 32 32 44 -43 c60 -59 74 -35 15 25 l-43 44 32 32 32
32 45 -44 c31 -30 48 -41 55 -34 7 7 -7 27 -44 62 -30 29 -59 52 -63 52 -5 0
-45 -40 -91 -89z"/>
<path d="M3910 6121 c0 -29 -5 -41 -17 -44 -14 -4 -12 -5 5 -6 20 -1 22 4 22
44 0 25 -2 45 -5 45 -3 0 -5 -18 -5 -39z"/>
<path d="M3213 6143 c9 -2 23 -2 30 0 6 3 -1 5 -18 5 -16 0 -22 -2 -12 -5z"/>
<path d="M3108 6133 c12 -2 30 -2 40 0 9 3 -1 5 -23 4 -22 0 -30 -2 -17 -4z"/>
<path d="M3283 6133 c9 -2 23 -2 30 0 6 3 -1 5 -18 5 -16 0 -22 -2 -12 -5z"/>
<path d="M3331 6126 c2 -2 15 -9 29 -15 24 -11 24 -11 6 3 -16 13 -49 24 -35
12z"/>
<path d="M2931 6104 c6 -7 18 -31 26 -51 11 -31 13 -32 8 -8 -4 17 -7 38 -8
47 -1 9 -10 19 -20 22 -15 4 -16 2 -6 -10z"/>
<path d="M2970 6096 c0 -2 7 -7 16 -10 8 -3 12 -2 9 4 -6 10 -25 14 -25 6z"/>
<path d="M3815 6090 c11 -5 29 -8 40 -8 16 0 15 2 -5 8 -34 11 -60 11 -35 0z"/>
<path d="M3031 6054 c13 -17 26 -30 28 -27 3 2 -8 16 -24 31 l-28 27 24 -31z"/>
<path d="M3975 6063 c-42 -22 -85 -64 -85 -82 0 -9 9 -2 20 16 10 18 33 39 49
47 28 15 30 15 33 -7 3 -17 5 -15 9 11 3 17 5 32 5 32 -1 -1 -14 -8 -31 -17z"/>
<path d="M2946 5995 c-4 -13 -14 -15 -38 -11 l-33 6 28 -11 c24 -9 32 -8 45 5
9 8 13 18 10 21 -3 3 -8 -1 -12 -10z"/>
<path d="M3060 5998 c0 -14 8 -18 33 -17 27 2 28 2 7 6 -14 3 -28 10 -32 17
-5 7 -8 5 -8 -6z"/>
<path d="M3991 5993 c-2 -35 10 -53 33 -52 20 0 20 1 1 8 -11 4 -23 21 -26 37
-5 22 -7 24 -8 7z"/>
<path d="M2808 5993 c12 -2 32 -2 45 0 12 2 2 4 -23 4 -25 0 -35 -2 -22 -4z"/>
<path d="M2723 5967 l-31 -23 41 -26 c23 -14 61 -32 85 -39 42 -12 51 -22 32
-34 -5 -3 -10 -11 -10 -18 0 -13 29 24 30 38 0 6 -21 17 -47 23 -58 16 -115
50 -107 64 4 5 20 16 38 24 17 7 24 13 15 14 -8 0 -29 -10 -46 -23z"/>
<path d="M3175 5965 c22 -8 45 -21 51 -30 6 -8 15 -15 19 -15 13 0 -18 31 -46
46 -16 8 -36 14 -46 14 -10 -1 0 -7 22 -15z"/>
<path d="M4058 5953 c7 -3 16 -2 19 1 4 3 -2 6 -13 5 -11 0 -14 -3 -6 -6z"/>
<path d="M4152 5946 c53 -28 53 -28 17 -59 -19 -16 -25 -25 -14 -19 11 6 28
19 38 30 18 19 17 20 -11 41 -17 12 -36 21 -44 21 -7 0 -1 -7 14 -14z"/>
<path d="M3188 5913 c6 -2 18 -2 25 0 6 3 1 5 -13 5 -14 0 -19 -2 -12 -5z"/>
<path d="M3116 5885 c-11 -8 -17 -15 -14 -15 4 0 13 -2 20 -5 9 -4 14 2 14 15
0 11 0 20 -1 20 0 0 -9 -7 -19 -15z"/>
<path d="M4089 5847 l-26 -12 38 -36 c22 -20 39 -32 39 -27 0 4 -11 18 -25 30
-31 27 -31 32 -2 46 12 6 18 11 12 11 -5 0 -22 -5 -36 -12z"/>
<path d="M2832 5790 c0 -14 2 -19 5 -12 2 6 2 18 0 25 -3 6 -5 1 -5 -13z"/>
<path d="M2840 5755 c0 -6 14 -27 30 -48 l29 -39 20 44 c12 23 16 35 9 25 -37
-53 -33 -53 -62 -11 -14 21 -26 34 -26 29z"/>
<path d="M910 2639 c-168 -21 -234 -60 -263 -151 -9 -30 -17 -80 -17 -112 0
-48 4 -61 25 -80 44 -41 153 -65 346 -76 174 -10 417 -35 425 -43 3 -2 -19
-14 -48 -26 -162 -67 -159 -61 -151 -294 l6 -188 47 -24 c59 -30 199 -49 290
-40 36 4 117 24 180 46 105 34 250 61 250 46 0 -4 -26 -20 -57 -36 -90 -45
-277 -160 -290 -179 -9 -11 -13 -61 -13 -163 0 -144 0 -147 23 -152 12 -2 103
-25 202 -50 1088 -277 1972 -276 3082 5 174 44 202 54 207 72 12 43 6 272 -6
288 -14 19 -201 134 -290 179 -32 16 -58 32 -58 36 0 16 146 -12 255 -49 107
-36 131 -41 220 -42 110 -1 178 14 218 47 l26 22 3 200 c2 222 2 223 -63 278
-47 41 -54 36 96 68 81 18 136 22 285 24 245 1 310 20 329 94 10 37 4 82 -19
159 -16 51 -69 98 -135 117 -85 26 -234 37 -335 26 -175 -20 -238 -51 -220
-109 11 -35 22 -112 16 -112 -56 0 -263 -38 -333 -62 l-93 -31 0 -117 0 -117
78 -28 c42 -15 99 -38 125 -52 51 -25 137 -98 137 -115 0 -7 -45 -9 -122 -6
-112 5 -132 8 -223 43 -99 38 -102 39 -245 39 -154 1 -239 -12 -392 -60 l-78
-25 0 -142 c0 -78 4 -147 8 -154 4 -7 50 -28 102 -47 119 -43 342 -131 370
-146 12 -6 20 -14 17 -16 -9 -10 -390 -84 -552 -108 -363 -54 -464 -61 -880
-61 -307 0 -424 4 -550 18 -291 32 -542 74 -834 138 l-55 11 28 15 c35 18 250
104 376 149 52 19 98 40 102 47 4 7 8 76 8 154 l0 142 -77 25 c-154 48 -239
61 -393 60 -143 0 -146 -1 -245 -38 -78 -30 -119 -39 -185 -43 l-85 -5 30 19
c17 11 73 43 126 71 112 61 109 53 109 238 l0 111 -93 31 c-70 24 -277 62
-333 62 -6 0 5 77 16 112 18 55 -49 90 -208 108 -98 11 -129 11 -222 -1z m-39
-239 c27 0 69 -29 69 -49 0 -5 -8 -19 -19 -32 -34 -42 -121 -25 -121 24 0 16
-3 18 -12 9 -7 -7 -19 -12 -27 -12 -10 1 1 17 29 41 24 22 46 36 48 30 2 -6
17 -11 33 -11z m5064 10 c3 -5 -8 -9 -27 -7 -45 3 -47 -17 -3 -24 47 -8 62
-23 45 -44 -16 -20 -91 -17 -98 3 -3 11 0 12 18 2 23 -13 74 -5 65 9 -3 5 -23
12 -46 16 -42 7 -62 31 -38 46 19 12 76 11 84 -1z m-137 -16 c26 -18 29 -56 6
-75 -9 -7 -31 -13 -49 -13 -42 0 -65 19 -65 55 0 46 62 66 108 33z m-4758 -14
c8 -5 11 -12 7 -16 -4 -4 -13 -2 -19 4 -16 16 -61 16 -56 0 3 -7 18 -16 36
-20 38 -10 48 -24 32 -43 -22 -27 -100 -16 -100 13 0 13 3 13 19 -2 19 -18 66
-19 66 -2 0 5 -14 14 -32 20 -40 14 -47 21 -40 41 7 17 63 21 87 5z m4608 -15
c18 -40 14 -64 -12 -76 -38 -18 -75 -3 -92 36 -16 39 -18 55 -6 55 5 0 16 -18
25 -40 13 -35 19 -40 47 -40 30 0 32 2 27 28 -3 15 -9 35 -12 45 -11 27 10 20
23 -8z m-4478 5 c20 -6 16 -8 -23 -9 -60 -1 -60 -23 -1 -32 l39 -6 -47 -2
c-35 -1 -48 -5 -48 -16 0 -10 10 -15 28 -16 15 0 36 -5 47 -10 15 -7 6 -8 -33
-6 -29 2 -55 6 -57 9 -3 3 -2 26 1 51 6 45 8 47 38 46 17 -1 42 -5 56 -9z
m135 -14 c29 -21 3 -46 -46 -46 -32 0 -39 -3 -39 -20 0 -11 -5 -20 -11 -20 -8
0 -10 13 -5 38 3 20 6 43 6 50 0 17 71 16 95 -2z m55 -16 c0 -16 7 -20 35 -20
28 0 35 4 35 20 0 11 5 20 10 20 6 0 10 -22 10 -50 0 -27 -4 -50 -10 -50 -5 0
-10 11 -10 25 0 22 -4 25 -34 25 -28 0 -35 -4 -38 -22 -2 -19 -18 -30 -18 -13
0 3 0 23 0 45 0 22 5 40 10 40 6 0 10 -9 10 -20z m4106 5 c-17 -13 -17 -15 8
-48 27 -36 32 -47 17 -47 -4 0 -20 18 -35 40 -23 34 -30 40 -54 35 -21 -4 -18
-1 13 15 48 23 80 27 51 5z m-658 -441 c18 -5 15 -44 -4 -44 -14 0 -14 -2 0
-22 27 -38 18 -42 -19 -9 -43 38 -53 38 -61 6 -11 -45 -26 -27 -18 23 3 26 8
50 10 54 4 6 62 1 92 -8z m-190 -7 c-50 -14 -53 -42 -3 -33 22 4 35 3 35 -4 0
-5 -14 -10 -31 -10 -28 0 -31 -2 -25 -25 10 -40 -12 -29 -23 13 -18 63 -13 70
54 70 29 -1 28 -1 -7 -11z m-2668 -26 c0 -5 -16 -12 -35 -15 -22 -4 -35 -13
-35 -22 0 -12 9 -14 48 -10 33 4 41 3 27 -3 -11 -5 -30 -10 -42 -10 -16 -1
-21 -5 -16 -17 5 -13 15 -15 52 -10 29 4 42 3 36 -3 -6 -6 -30 -11 -55 -13
-44 -3 -44 -3 -61 42 l-17 45 47 12 c25 6 47 12 49 12 1 1 2 -3 2 -8z m3000
-47 c0 -34 -4 -53 -10 -49 -5 3 -10 12 -10 20 0 17 -50 29 -63 16 -6 -6 -18
-11 -26 -11 -22 0 69 79 92 80 14 0 17 -9 17 -56z m189 16 c29 -5 59 -14 66
-20 16 -14 9 -40 -11 -40 -17 0 -18 -12 -2 -28 6 -6 8 -15 4 -19 -4 -5 -17 4
-28 20 -23 32 -58 37 -58 7 0 -11 -4 -20 -10 -20 -12 0 -13 16 -1 57 8 27 6
32 -12 37 -24 6 -44 -13 -54 -51 -3 -13 -12 -23 -19 -23 -12 0 -12 5 1 30 19
37 19 60 0 60 -8 0 -15 4 -15 9 0 5 18 5 43 -1 23 -5 66 -14 96 -18z m-3305
-22 c32 -46 12 -75 -54 -80 -31 -3 -34 0 -48 41 -17 51 -9 61 50 61 27 0 41
-6 52 -22z m3501 2 c4 -6 -12 -10 -39 -10 -34 0 -46 -4 -46 -15 0 -11 12 -16
43 -17 l42 -1 -42 -4 c-58 -6 -60 -33 -3 -33 22 0 40 -4 40 -10 0 -5 -22 -10
-50 -10 l-50 0 0 55 0 55 49 0 c28 0 53 -4 56 -10z m105 0 c8 -5 11 -12 7 -16
-3 -4 -13 -1 -21 5 -16 13 -56 6 -56 -10 0 -5 13 -9 28 -9 37 0 67 -22 59 -44
-7 -19 -91 -23 -102 -5 -11 16 3 23 19 10 17 -15 58 -11 63 5 2 7 -14 14 -37
18 -43 7 -63 31 -39 47 18 11 60 11 79 -1z m-3919 -42 l16 -43 28 43 c24 36
45 54 45 37 0 -12 -65 -95 -75 -95 -6 0 -21 23 -32 50 -15 34 -17 50 -9 50 6
0 19 -19 27 -42z m176 -1 c20 -26 28 -44 21 -46 -7 -2 -14 1 -16 8 -6 17 -72
14 -72 -4 0 -8 -6 -15 -14 -15 -12 0 -12 8 2 50 20 62 36 63 79 7z m2870 -49
c18 -7 33 -16 33 -20 0 -11 -2 -10 -43 7 -31 13 -36 13 -41 -1 -4 -10 3 -18
24 -26 17 -5 30 -14 30 -19 0 -5 -16 -2 -36 6 -20 8 -40 12 -45 9 -18 -11 -8
-25 27 -40 20 -8 34 -18 31 -21 -6 -5 -97 27 -97 34 0 12 63 83 73 83 6 0 26
-5 44 -12z m138 -69 c19 -20 19 -21 2 -34 -11 -7 -25 -11 -31 -9 -9 3 -11 -4
-8 -26 2 -18 0 -30 -7 -30 -6 0 -11 11 -11 24 0 14 -7 32 -16 41 -15 15 -18
14 -40 -6 -35 -33 -29 -6 8 36 26 30 36 35 57 30 14 -3 35 -15 46 -26z m-2563
-1 l-23 -11 38 -39 c22 -23 31 -38 23 -38 -8 0 -29 16 -46 36 -27 33 -33 35
-52 25 -12 -6 -22 -8 -22 -3 0 12 61 41 85 41 18 0 18 -1 -3 -11z m-117 -54
c-11 -8 -27 -19 -35 -25 -13 -7 -13 -10 -1 -18 10 -6 24 -5 44 5 16 9 31 13
34 10 3 -3 -6 -11 -21 -17 -14 -7 -26 -16 -26 -21 0 -18 29 -19 60 -3 18 9 34
14 36 12 6 -6 -64 -47 -80 -47 -6 0 -29 18 -50 39 l-38 39 38 21 c46 24 67 27
39 5z m2805 -4 c12 -12 18 -25 15 -30 -3 -5 -16 2 -30 16 -29 29 -35 30 -68 4
-30 -24 -26 -47 10 -61 33 -12 52 0 28 18 -14 9 -15 13 -4 13 8 0 20 -4 28 -9
12 -8 12 -12 2 -25 -18 -22 -53 -20 -85 5 -32 25 -32 33 -1 64 30 31 77 33
105 5z m89 -118 c-20 -48 -43 -65 -33 -24 7 24 -30 46 -56 32 -11 -6 -21 -6
-24 -1 -7 11 116 62 127 52 4 -4 -2 -31 -14 -59z m-3089 -201 c0 -61 9 -66 51
-25 21 21 42 35 45 31 8 -8 -76 -86 -93 -87 -7 0 -13 8 -13 18 0 9 -3 34 -6
55 -5 24 -3 37 5 37 6 0 11 -13 11 -29z m3138 -4 c-25 -12 -25 -13 -11 -40 8
-16 12 -36 10 -45 -3 -12 -10 -4 -22 25 -15 35 -23 42 -49 45 -30 4 -29 4 14
15 25 6 54 11 65 11 16 0 15 -2 -7 -11z m-3004 -19 c-11 -38 -34 -78 -44 -78
-5 0 0 23 12 50 20 49 46 71 32 28z m88 2 c44 -13 57 -40 34 -75 -13 -20 -25
-25 -54 -24 -69 1 -74 7 -50 62 11 26 23 47 27 47 3 0 23 -5 43 -10z m2823
-46 c9 -25 15 -48 12 -51 -4 -3 -27 7 -52 22 -50 29 -63 28 -46 -3 13 -24 14
-42 3 -42 -10 0 -44 91 -36 99 3 3 28 -7 56 -22 54 -30 53 -31 31 31 -3 6 -1
12 5 12 5 0 17 -21 27 -46z m-2645 5 c10 -5 -2 -8 -32 -6 -57 2 -63 -13 -11
-30 l38 -12 -47 5 c-38 4 -48 2 -48 -9 0 -16 21 -27 51 -27 10 0 19 -5 19 -11
0 -6 -8 -8 -17 -5 -10 2 -33 7 -50 11 -18 4 -33 8 -33 10 0 2 9 24 20 50 19
45 20 46 57 39 21 -4 45 -10 53 -15z m2504 -29 c18 -45 20 -60 8 -60 -4 0 -14
17 -21 38 -8 20 -16 43 -18 50 -3 6 -1 12 5 12 5 0 17 -18 26 -40z m-70 21 c3
-5 -8 -8 -25 -7 -18 0 -34 -5 -36 -11 -3 -9 6 -13 29 -13 19 0 43 -6 53 -14
16 -12 17 -16 6 -30 -15 -18 -86 -22 -96 -6 -4 7 2 9 18 4 29 -7 67 3 67 17 0
5 -15 9 -34 9 -19 0 -41 3 -50 6 -19 7 -21 40 -3 47 21 9 66 7 71 -2z m-2214
-36 c18 -22 5 -31 -15 -11 -19 18 -41 21 -50 6 -3 -5 10 -18 30 -27 48 -23 43
-47 -11 -51 -40 -3 -76 19 -60 36 4 4 12 -1 17 -11 11 -18 69 -25 69 -7 0 5
-16 16 -35 24 -33 14 -44 34 -28 49 12 13 71 7 83 -8z m2040 -30 c30 -31 39
-45 28 -45 -9 0 -20 5 -23 10 -11 18 -57 11 -62 -9 -8 -30 -49 -35 -80 -11
-14 11 -35 20 -46 20 -15 0 -18 -5 -15 -25 7 -33 -10 -32 -22 0 -27 70 -26 73
25 81 36 5 50 3 63 -9 12 -13 13 -19 3 -30 -9 -12 -6 -18 13 -31 28 -18 31
-16 41 39 12 69 16 70 75 10z m-1988 -25 c-15 -48 -41 -73 -28 -27 4 12 9 34
12 50 4 15 12 27 19 27 10 0 10 -11 -3 -50z m1718 30 c0 -5 -9 -10 -19 -10
-29 0 -51 -11 -51 -25 0 -9 12 -12 43 -9 l42 3 -37 -11 c-56 -17 -51 -42 7
-35 27 4 45 3 45 -3 0 -6 -16 -11 -35 -12 -19 -1 -43 -2 -52 -2 -12 -1 -20 13
-29 47 -14 53 -13 54 46 60 19 2 36 5 38 5 1 1 2 -2 2 -8z m-1529 -11 c11 -5
17 -15 13 -20 -4 -6 -13 -4 -25 7 -39 35 -101 -13 -68 -52 13 -15 34 -15 74 2
18 7 18 6 6 -9 -16 -20 -81 -23 -99 -5 -17 17 -15 48 5 70 18 20 64 24 94 7z
m56 -36 c-7 -40 5 -63 34 -63 21 0 30 12 38 53 4 17 12 32 19 35 16 5 7 -42
-14 -75 -16 -25 -52 -30 -86 -12 -17 9 -19 17 -13 47 7 39 13 52 22 52 3 0 3
-17 0 -37z m1358 1 c0 -14 -11 -22 -37 -28 -27 -7 -38 -15 -38 -28 0 -37 -18
-16 -27 31 l-10 50 36 3 c49 4 76 -6 76 -28z m-1855 17 c0 -6 -4 -13 -10 -16
-5 -3 -10 1 -10 9 0 9 5 16 10 16 6 0 10 -4 10 -9z m670 -36 c27 -43 40 -45
40 -5 0 19 5 30 14 30 10 0 11 -10 3 -50 -5 -27 -14 -50 -18 -50 -5 0 -22 18
-38 40 -31 43 -41 42 -41 -2 0 -15 -4 -28 -10 -28 -11 0 -13 24 -4 69 8 41 27
39 54 -4z m1045 24 c11 -17 -1 -21 -23 -8 -21 13 -52 7 -52 -11 0 -5 15 -10
33 -10 41 0 60 -12 55 -36 -4 -25 -79 -32 -98 -9 -14 17 0 21 17 4 13 -13 55
-8 60 7 2 7 -14 14 -37 18 -43 7 -63 31 -39 47 20 12 76 11 84 -2z m-857 -11
c7 -7 12 -16 12 -22 0 -6 -5 -5 -12 2 -17 17 -63 15 -78 -3 -19 -23 -3 -55 29
-55 15 0 32 5 39 12 6 6 15 8 19 4 11 -10 -26 -36 -52 -36 -31 0 -65 28 -65
55 0 43 77 74 108 43z m723 2 c22 -12 26 -59 7 -78 -7 -7 -30 -12 -53 -12 -23
0 -46 5 -53 12 -18 18 -15 65 6 77 22 13 68 14 93 1z m-581 -10 c0 -5 -10 -9
-22 -7 -20 2 -23 -3 -26 -40 -4 -57 -22 -55 -22 1 0 38 -3 45 -22 49 -13 2 3
5 35 6 32 0 57 -3 57 -9z m103 -41 c28 -48 29 -83 3 -46 -16 21 -72 23 -80 2
-3 -8 -10 -15 -17 -15 -6 0 -9 6 -6 14 10 26 57 96 65 96 4 0 20 -23 35 -51z
m192 37 c27 -20 12 -43 -34 -51 -31 -5 -41 -11 -41 -26 0 -10 -4 -19 -10 -19
-5 0 -10 25 -10 55 l0 55 38 0 c21 0 47 -6 57 -14z m142 -2 c3 -8 1 -20 -6
-27 -8 -8 -5 -17 11 -34 17 -18 18 -23 6 -23 -8 0 -23 9 -33 20 -10 11 -29 20
-42 20 -16 0 -23 -6 -23 -20 0 -11 -4 -20 -10 -20 -5 0 -10 23 -10 50 l0 50
50 0 c37 0 52 -4 57 -16z"/>
<path d="M848 2383 c-19 -5 -34 -45 -23 -62 9 -15 58 -14 73 1 18 18 14 46 -7
58 -11 5 -21 9 -23 9 -2 -1 -11 -3 -20 -6z"/>
<path d="M5726 2387 c-11 -8 -17 -23 -14 -38 3 -21 8 -24 43 -24 32 0 40 4 43
20 5 40 -40 66 -72 42z"/>
<path d="M1230 2340 c0 -16 7 -20 30 -20 32 0 42 23 14 34 -29 11 -44 6 -44
-14z"/>
<path d="M4730 1886 c0 -12 10 -16 36 -16 45 0 42 24 -4 28 -24 2 -32 -1 -32
-12z"/>
<path d="M4907 1852 c-17 -18 -17 -20 -1 -26 22 -8 26 -3 22 24 -3 22 -3 22
-21 2z"/>
<path d="M5125 1822 c-16 -17 -2 -32 30 -32 44 0 48 26 5 32 -17 3 -32 2 -35
0z"/>
<path d="M1758 1823 c-21 -5 -21 -2 -7 -42 8 -22 17 -31 33 -31 42 0 59 36 30
64 -16 16 -24 17 -56 9z"/>
<path d="M1646 1793 c-12 -12 -6 -33 9 -33 8 0 15 6 15 14 0 17 -14 28 -24 19z"/>
<path d="M4636 1673 c-14 -14 -4 -31 20 -37 41 -11 52 9 16 28 -16 8 -32 12
-36 9z"/>
<path d="M4892 1519 c-13 -5 -20 -13 -17 -19 10 -16 23 -12 35 10 6 11 9 20 8
19 -2 0 -13 -4 -26 -10z"/>
<path d="M2001 1218 c-9 -24 -8 -34 1 -40 21 -13 44 -9 61 10 22 24 21 39 -2
52 -33 17 -49 11 -60 -22z"/>
<path d="M4437 1150 c-4 -15 0 -20 14 -20 22 0 25 13 5 29 -11 9 -15 7 -19 -9z"/>
<path d="M4276 1135 c6 -16 31 -19 58 -9 29 11 16 24 -24 24 -31 0 -38 -3 -34
-15z"/>
<path d="M4020 1100 c0 -17 4 -19 28 -14 36 9 43 14 37 25 -4 5 -19 9 -36 9
-22 0 -29 -5 -29 -20z"/>
<path d="M3750 1085 c-27 -33 8 -73 53 -61 20 5 27 13 27 31 0 39 -55 60 -80
30z"/>
<path d="M3306 1065 c-9 -23 -8 -25 9 -25 17 0 19 9 6 28 -7 11 -10 10 -15 -3z"/>
<path d="M3470 1065 c0 -12 8 -16 33 -13 17 2 32 8 32 13 0 6 -15 11 -32 13
-25 3 -33 -1 -33 -13z"/>
<path d="M3600 1073 c0 -16 6 -18 35 -15 44 5 41 26 -3 30 -26 3 -32 0 -32
-15z"/>
<path d="M1327 1020 c-48 -42 -57 -87 -29 -145 21 -44 69 -87 109 -99 34 -11
36 10 3 24 -39 16 -86 70 -95 109 -9 42 18 89 63 108 50 21 99 5 147 -48 39
-43 56 -45 37 -5 -20 45 -78 79 -141 84 -53 4 -61 2 -94 -28z"/>
<path d="M5239 1034 c-9 -11 -4 -42 20 -141 42 -168 38 -160 56 -142 12 11 13
22 5 49 -11 39 -9 42 62 102 48 40 51 41 85 29 30 -11 38 -11 50 2 13 13 6 17
-59 40 -40 13 -103 36 -140 50 -57 22 -68 24 -79 11z m109 -56 l53 -21 -23
-24 c-13 -14 -35 -34 -50 -44 l-27 -20 -20 67 c-25 80 -25 78 -3 69 9 -4 41
-16 70 -27z"/>
<path d="M1578 810 c-64 -32 -122 -60 -130 -62 -11 -4 -11 -7 0 -21 13 -15 17
-15 50 2 l36 18 62 -46 c62 -46 62 -46 57 -87 -4 -32 -2 -42 10 -47 12 -5 17
2 21 26 3 18 13 83 24 145 24 148 24 148 -130 72z m108 -12 c-4 -18 -9 -50
-13 -70 -3 -21 -9 -38 -12 -38 -12 0 -91 61 -91 70 0 9 96 67 114 69 5 0 6
-14 2 -31z"/>
<path d="M5000 839 c0 -15 140 -209 152 -209 14 0 128 89 128 101 0 18 -22 9
-64 -26 -24 -19 -47 -35 -53 -35 -5 0 -38 40 -74 90 -58 81 -89 109 -89 79z"/>
<path d="M4868 754 l-56 -36 60 -101 c34 -56 66 -107 72 -114 8 -9 28 -1 79
33 62 40 83 64 56 64 -6 0 -29 -13 -52 -28 -23 -16 -47 -32 -54 -35 -10 -6
-53 52 -53 71 0 4 20 19 45 34 42 26 58 48 34 48 -6 0 -30 -13 -54 -30 l-43
-30 -21 34 c-12 18 -21 38 -21 44 0 5 20 23 44 38 25 16 42 32 40 36 -8 12
-15 10 -76 -28z"/>
<path d="M1781 650 c-39 -60 -71 -112 -71 -114 0 -2 7 -6 15 -10 10 -3 23 9
41 39 14 25 29 45 32 45 4 0 19 -10 35 -23 22 -17 30 -36 39 -87 7 -36 19 -71
28 -77 30 -25 57 -25 88 -3 l29 21 66 -32 c64 -32 66 -34 69 -73 2 -30 8 -42
21 -44 17 -4 18 4 12 140 -4 78 -11 147 -16 153 -11 11 -4 15 -139 -88 -56
-42 -105 -75 -109 -72 -5 2 -11 28 -15 57 -4 28 -12 60 -17 70 -9 16 -5 18 30
18 32 0 44 5 57 25 30 46 5 88 -85 142 l-39 23 -71 -110z m128 44 c43 -28 55
-47 46 -75 -10 -30 -52 -34 -102 -10 -40 19 -43 23 -32 44 18 33 41 67 45 67
3 0 22 -12 43 -26z m243 -209 c-2 -41 -6 -75 -8 -75 -3 0 -27 11 -55 25 l-50
26 58 49 c32 28 58 50 58 50 0 0 -1 -34 -3 -75z"/>
<path d="M4735 671 c-3 -5 16 -50 42 -99 47 -88 47 -89 30 -116 -10 -15 -34
-34 -53 -44 -53 -25 -79 -5 -132 97 -30 57 -47 80 -54 73 -17 -17 71 -184 106
-201 37 -17 94 -2 139 39 46 41 42 84 -14 182 -44 77 -53 87 -64 69z"/>
<path d="M4418 522 c-49 -20 -88 -42 -88 -49 0 -17 -4 -18 79 17 l72 29 -6
-32 c-4 -17 -22 -81 -40 -142 -19 -60 -32 -111 -31 -112 5 -5 182 67 202 81
40 29 3 26 -77 -8 -46 -19 -85 -34 -86 -33 0 1 14 54 32 117 42 151 47 170 38
169 -5 -1 -47 -17 -95 -37z"/>
<path d="M2321 462 c-97 -52 -90 -186 12 -232 46 -21 102 -26 112 -10 3 5 -2
10 -12 10 -75 0 -153 57 -153 112 0 38 26 83 57 97 37 17 95 13 131 -9 39 -24
42 -24 42 -5 0 21 -75 54 -120 55 -19 0 -51 -8 -69 -18z"/>
<path d="M4190 440 c-30 -10 -55 -22 -54 -27 5 -40 69 -243 77 -243 29 0 147
46 147 57 0 16 4 17 -65 -7 -32 -11 -62 -17 -66 -13 -4 5 -12 25 -17 45 l-10
38 54 17 c30 9 54 23 54 30 0 16 1 16 -50 -2 -61 -22 -68 -19 -80 26 -6 23
-10 42 -8 44 2 1 23 9 47 17 25 8 47 20 49 26 5 16 -11 14 -78 -8z"/>
<path d="M2556 300 c-53 -60 -96 -112 -96 -115 0 -15 37 -2 61 21 l27 26 71
-18 c70 -18 72 -19 77 -55 4 -26 12 -39 26 -42 18 -5 19 -2 14 21 -3 15 -16
78 -29 141 -15 72 -29 117 -39 122 -12 7 -38 -17 -112 -101z m113 4 c7 -37 10
-69 7 -71 -6 -6 -106 17 -106 25 0 6 81 112 85 112 2 0 8 -30 14 -66z"/>
<path d="M4030 378 c0 -12 11 -65 24 -116 l24 -94 -21 19 c-12 10 -61 53 -108
96 -86 76 -102 86 -114 67 -6 -9 32 -250 41 -259 2 -3 9 0 15 6 9 9 -8 140
-28 208 -4 12 29 -11 83 -59 49 -44 98 -88 109 -98 12 -10 29 -15 41 -12 21 6
21 6 -10 132 -18 69 -37 127 -44 130 -7 2 -12 -6 -12 -20z"/>
<path d="M2820 330 c-30 -30 -24 -55 21 -92 98 -79 95 -76 83 -95 -15 -24 -72
-28 -118 -9 -31 13 -36 13 -36 1 0 -19 30 -34 82 -41 56 -7 96 8 104 41 8 34
-14 65 -70 101 -54 34 -67 61 -40 81 19 14 69 13 107 -2 12 -5 17 -2 17 8 0
20 -21 27 -81 27 -36 0 -54 -5 -69 -20z"/>
<path d="M3661 333 l-43 -4 6 -57 c3 -31 9 -92 12 -135 7 -77 7 -78 33 -73 14
3 52 8 84 11 31 4 57 11 57 17 0 7 -23 9 -70 4 l-70 -6 -1 35 c-1 19 -2 41 -3
48 -1 6 10 13 24 15 63 6 90 14 90 24 0 7 -19 8 -59 4 l-58 -7 -7 42 c-4 23
-3 46 1 50 4 4 28 9 52 11 25 2 46 9 49 16 4 12 -5 13 -97 5z"/>
<path d="M3526 237 c-16 -45 -36 -98 -44 -117 l-14 -35 -19 35 c-10 19 -32 70
-50 113 -23 55 -38 77 -50 77 -16 0 -14 -10 18 -82 19 -46 44 -104 55 -130 16
-37 26 -48 43 -48 23 0 28 11 99 203 23 60 23 67 8 67 -12 0 -25 -23 -46 -83z"/>
<path d="M3130 75 c0 -8 9 -15 20 -15 11 0 20 7 20 15 0 8 -9 15 -20 15 -11 0
-20 -7 -20 -15z"/>
</g>
</svg>
